HIERARCHY
ROOT root
{
	OFFSET	0	13.1	24.9
	CHANNELS 6  Xposition Yposition Zposition Xrotation Yrotation Zrotation
	JOINT spine_1
	{
		OFFSET	0	9.99999	0
		CHANNELS 3  Xrotation Yrotation Zrotation
		JOINT spine_2
		{
			OFFSET	0	112	-10
			CHANNELS 3  Xrotation Yrotation Zrotation
			JOINT spine_3
			{
				OFFSET	0	206.5	19.3
				CHANNELS 3  Xrotation Yrotation Zrotation
				JOINT spine_4
				{
					OFFSET	0	110.4	14.6
					CHANNELS 3  Xrotation Yrotation Zrotation
					JOINT neck_1
					{
						OFFSET	0	71.8	-50.3
						CHANNELS 3  Xrotation Yrotation Zrotation
						JOINT neck_2
						{
							OFFSET	0	86.2	-25.8
							CHANNELS 3  Xrotation Yrotation Zrotation
							JOINT head_ee
							{
								OFFSET	0	179.8	-8.7
								CHANNELS 3  Xrotation Yrotation Zrotation
								End Site
								{
									OFFSET	1	0	0
								}
							}
						}
					}
					JOINT left_clavicle
					{
						OFFSET	-43.2	22.4	-70.8
						CHANNELS 3  Xrotation Yrotation Zrotation
						JOINT left_shoulder
						{
							OFFSET	-93.9	-5.79999	48.7
							CHANNELS 3  Xrotation Yrotation Zrotation
							JOINT left_elbow
							{
								OFFSET	-291.4	-30.8	15.2
								CHANNELS 3  Xrotation Yrotation Zrotation
								JOINT left_lowarm_twist
								{
									OFFSET	-110.7	-3.89999	13.6
									CHANNELS 3  Xrotation Yrotation Zrotation
									JOINT left_hand
									{
										OFFSET	-110.7	-3.89999	13.6
										CHANNELS 3  Xrotation Yrotation Zrotation
										JOINT left_ee
										{
											OFFSET	-80.8	-5.10001	12.1
											CHANNELS 3  Xrotation Yrotation Zrotation
											End Site
											{
												OFFSET	1	0	0
											}
										}
									}
								}
							}
						}
					}
					JOINT right_clavicle
					{
						OFFSET	43.2	22.4	-70.8
						CHANNELS 3  Xrotation Yrotation Zrotation
						JOINT right_shoulder
						{
							OFFSET	93.9	-5.79999	48.7
							CHANNELS 3  Xrotation Yrotation Zrotation
							JOINT right_elbow
							{
								OFFSET	291.4	-30.8	15.2
								CHANNELS 3  Xrotation Yrotation Zrotation
								JOINT right_lowarm_twist
								{
									OFFSET	110.7	-3.89999	13.6
									CHANNELS 3  Xrotation Yrotation Zrotation
									JOINT right_hand
									{
										OFFSET	110.7	-3.89999	13.6
										CHANNELS 3  Xrotation Yrotation Zrotation
										JOINT right_ee
										{
											OFFSET	80.8	-5.10001	12.1
											CHANNELS 3  Xrotation Yrotation Zrotation
											End Site
											{
												OFFSET	1	0	0
											}
										}
									}
								}
							}
						}
					}
				}
			}
		}
	}
	JOINT left_hip
	{
		OFFSET	-82.8	-127.5	0.300001
		CHANNELS 3  Xrotation Yrotation Zrotation
		JOINT left_knee
		{
			OFFSET	-28.2	-396.7	2.2
			CHANNELS 3  Xrotation Yrotation Zrotation
			JOINT left_ankle
			{
				OFFSET	-11.7	-411.3	35.4
				CHANNELS 3  Xrotation Yrotation Zrotation
				JOINT left_toes
				{
					OFFSET	0	-60	-88.6
					CHANNELS 3  Xrotation Yrotation Zrotation
					JOINT left_foot_ee
					{
						OFFSET	-22.5	-16.5	-42.2
						CHANNELS 3  Xrotation Yrotation Zrotation
						End Site
						{
							OFFSET	1	0	0
						}
					}
				}
			}
		}
	}
	JOINT right_hip
	{
		OFFSET	82.8	-127.5	0.300001
		CHANNELS 3  Xrotation Yrotation Zrotation
		JOINT right_knee
		{
			OFFSET	28.2	-396.7	2.2
			CHANNELS 3  Xrotation Yrotation Zrotation
			JOINT right_ankle
			{
				OFFSET	11.7	-411.3	35.4
				CHANNELS 3  Xrotation Yrotation Zrotation
				JOINT right_toes
				{
					OFFSET	0	-60	-88.6
					CHANNELS 3  Xrotation Yrotation Zrotation
					JOINT right_foot_ee
					{
						OFFSET	22.5	-16.5	-42.2
						CHANNELS 3  Xrotation Yrotation Zrotation
						End Site
						{
							OFFSET	1	0	0
						}
					}
				}
			}
		}
	}
}
MOTION
Frames: 14
Frame Time: 0.02
1372.05 701.618 -1475.22 -4.09513422273 26.5695526001 -1.0448520927 -0.092769 -0.0438515 0.384251 -0.0926893 -0.0682134 0.380682 -0.0931187 -0.147284 0.357603 -0.0932865 -0.0889592 0.376375 0.503748 8.60751 2.53126 0.632188 13.2104 3.58332 -0.0 0.0 -0.0 1.99166 13.83 4.87991 8.59299 -28.7869 61.9109 2.74815 -53.6906 1.39111 -20.9098 -1.18539 2.38163 0.252162 0.164667 1.75282 -0.0 0.0 -0.0 8.40705 2.99221 -16.4523 -26.1385 22.9596 -58.79 0.557265 15.4325 -0.0755067 -16.974 0.896781 -1.96855 3.62733 -23.61 -32.1596 0.0 0.0 0.0 -6.12812 -4.58829 7.45155 -20.9767 0.282751 3.18867 37.393 1.28703 -4.63608 -18.0938 0.0 0.0 -0.0 0.0 -0.0 36.7513 19.908 -0.964842 -2.86774 -0.107407 -0.426953 -15.564 1.57847 -2.37237 -0.29214 0.0 0.0 0.0 0.0 0.0 
1358.45207307 695.568 -1500.29781634 -4.34348073667 28.4086995759 -1.17973088652 -0.0708024 -0.0864792 0.29949 -0.0707588 -0.105361 0.29338 -0.071295 -0.165 0.264477 -0.0713718 -0.12116 0.287216 1.98348 9.14159 2.11098 2.15771 14.2965 3.0559 -0.0 0.0 -0.0 2.04621 13.0452 4.91795 7.60811 -28.0802 62.4878 2.64071 -52.5949 1.30515 -20.7931 -1.17642 2.36967 0.650431 -1.28618 3.81697 -0.0 0.0 -0.0 8.50825 3.88631 -16.6675 -26.1655 22.4897 -59.5392 0.508562 14.1403 -0.0630762 -17.4731 0.93179 -2.022 3.64505 -24.9328 -32.5122 0.0 0.0 0.0 -7.35422 -3.43724 6.89616 -21.9341 0.267646 3.33481 36.2709 -2.13186 -4.55944 -16.8949 0.0 0.0 -0.0 0.0 -0.0 37.8624 20.1091 -0.683624 -7.99297 -0.245639 -1.20109 -16.6022 0.952585 -2.52763 2.61545 -0.0 -0.0 0.0 0.0 0.0 
1341.17596113 692.181 -1527.93017618 -4.19218077721 28.1093801558 -1.28806372378 -0.203105 0.0387028 0.212123 -0.20308 0.0251265 0.214156 -0.202971 -0.0212056 0.21458 -0.203035 0.0129493 0.215236 1.94754 9.66282 0.907869 2.17992 16.2318 1.76849 -0.0 0.0 -0.0 1.69523 12.7895 4.31865 5.28847 -28.5299 62.3732 2.64272 -52.6159 1.30675 -20.4705 -1.15177 2.33652 0.965359 -4.73665 4.50228 -0.0 0.0 -0.0 8.73321 3.86844 -17.1354 -25.6642 21.5487 -58.8522 0.512933 14.2569 -0.0641482 -15.3708 0.787496 -1.79482 3.72829 -23.1901 -32.7985 0.0 0.0 0.0 -7.61222 -6.51218 7.11928 -25.392 0.192809 3.86007 37.2857 -11.5932 -4.8214 -16.8468 0.0 0.0 -0.0 0.0 -0.0 37.7464 19.8378 -0.953194 -10.5616 -0.288732 -1.59286 -11.785 7.39526 -1.83286 5.90015 -0.0 -0.0 0.0 0.0 0.0 
1341.73390543 692.181 -1528.25304026 -4.16893360193 27.5063627109 -1.33789533266 -0.203105 0.0387028 0.212123 -0.20308 0.0251265 0.214156 -0.202971 -0.0212056 0.21458 -0.203035 0.0129493 0.215236 1.94754 9.66282 0.907869 2.17992 16.2318 1.76849 -0.0 0.0 -0.0 1.69523 12.7895 4.31865 5.28847 -28.5299 62.3732 2.64272 -52.6159 1.30675 -20.4705 -1.15177 2.33652 0.965359 -4.73665 4.50228 -0.0 0.0 -0.0 8.73321 3.86844 -17.1354 -25.6642 21.5487 -58.8522 0.512933 14.2569 -0.0641482 -15.3708 0.787496 -1.79482 3.72829 -23.1901 -32.7985 0.0 0.0 0.0 -7.61222 -6.51218 7.11928 -25.392 0.192809 3.86007 37.2857 -11.5932 -4.8214 -16.8468 0.0 0.0 -0.0 0.0 -0.0 37.7464 19.8378 -0.953194 -10.5616 -0.288732 -1.59286 -11.785 7.39526 -1.83286 5.90015 -0.0 -0.0 0.0 0.0 0.0 
1302.04401088 708.331 -1587.89160167 -3.07831614794 28.4508899078 -1.06755698929 -0.505399 0.219219 -0.0277428 -0.505425 0.22054 -0.013737 -0.505496 0.218202 0.0348485 -0.505429 0.220967 -4.99572e-05 3.40352 9.51516 -0.305735 3.7088 16.8072 0.248116 -0.0 0.0 -0.0 2.82873 17.473 6.40211 0.923377 -24.3095 63.8305 2.32537 -49.0312 1.06061 -23.2903 -1.37354 2.62162 1.02335 -4.2954 5.079 -0.0 0.0 -0.0 9.4586 4.15724 -18.6586 -25.2451 22.0167 -56.8511 0.455635 12.7192 -0.0507827 -15.0912 0.768938 -1.76422 3.46503 -27.2356 -31.6369 0.0 0.0 0.0 -5.46208 -4.12598 5.21632 -33.7488 -0.11768 5.10385 34.7024 -10.2189 -4.54031 -18.0004 0.0 0.0 -0.0 0.0 -0.0 35.1428 18.0435 -1.90235 -17.5848 -0.316569 -2.66941 -8.26857 0.934618 -1.24712 11.8496 -0.0 -0.0 0.0 0.0 0.0 
1303.70249367 708.331 -1588.90529682 -3.05440409388 27.6125119027 -1.11843666463 -0.505399 0.219219 -0.0277428 -0.505425 0.22054 -0.013737 -0.505496 0.218202 0.0348485 -0.505429 0.220967 -4.99572e-05 3.40352 9.51516 -0.305735 3.7088 16.8072 0.248116 -0.0 0.0 -0.0 2.82873 17.473 6.40211 0.923377 -24.3095 63.8305 2.32537 -49.0312 1.06061 -23.2903 -1.37354 2.62162 1.02335 -4.2954 5.079 -0.0 0.0 -0.0 9.4586 4.15724 -18.6586 -25.2451 22.0167 -56.8511 0.455635 12.7192 -0.0507827 -15.0912 0.768938 -1.76422 3.46503 -27.2356 -31.6369 0.0 0.0 0.0 -5.46208 -4.12598 5.21632 -33.7488 -0.11768 5.10385 34.7024 -10.2189 -4.54031 -18.0004 0.0 0.0 -0.0 0.0 -0.0 35.1428 18.0435 -1.90235 -17.5848 -0.316569 -2.66941 -8.26857 0.934618 -1.24712 11.8496 -0.0 -0.0 0.0 0.0 0.0 
1268.03108056 714.868 -1635.21348877 -2.07812738496 25.3882340613 -1.53136795024 -0.523976 0.130442 0.110669 -0.523978 0.123135 0.118745 -0.523714 0.0941259 0.142839 -0.523724 0.115503 0.126181 4.00206 6.88469 -2.79217 4.29219 14.3118 -2.77236 -0.0 0.0 -0.0 2.04118 20.4234 5.35375 -2.10266 -25.351 66.1947 1.80046 -41.7256 0.686237 -22.7913 -1.33327 2.57196 0.0496815 3.97681 1.99402 -0.0 0.0 -0.0 9.92412 6.88435 -19.6805 -22.5277 22.2925 -55.9594 0.587308 16.2217 -0.0837007 -19.7313 1.09599 -2.26001 3.21957 -30.3729 -30.4581 0.0 0.0 0.0 -0.96489 -4.84337 6.99582 -43.1731 -0.680881 6.43668 39.8059 -5.00255 -4.91488 -18.0545 0.0 0.0 -0.0 0.0 -0.0 32.7717 18.739 -3.54193 -21.8191 -0.26959 -3.31726 0.607485 -8.84607 0.0887734 15.1008 -0.0 -0.0 0.0 0.0 0.0 
1272.10613404 714.868 -1637.79021777 -2.05415990052 23.9415791781 -1.58879658112 -0.523976 0.130442 0.110669 -0.523978 0.123135 0.118745 -0.523714 0.0941259 0.142839 -0.523724 0.115503 0.126181 4.00206 6.88469 -2.79217 4.29219 14.3118 -2.77236 -0.0 0.0 -0.0 2.04118 20.4234 5.35375 -2.10266 -25.351 66.1947 1.80046 -41.7256 0.686237 -22.7913 -1.33327 2.57196 0.0496815 3.97681 1.99402 -0.0 0.0 -0.0 9.92412 6.88435 -19.6805 -22.5277 22.2925 -55.9594 0.587308 16.2217 -0.0837007 -19.7313 1.09599 -2.26001 3.21957 -30.3729 -30.4581 0.0 0.0 0.0 -0.96489 -4.84337 6.99582 -43.1731 -0.680881 6.43668 39.8059 -5.00255 -4.91488 -18.0545 0.0 0.0 -0.0 0.0 -0.0 32.7717 18.739 -3.54193 -21.8191 -0.26959 -3.31726 0.607485 -8.84607 0.0887734 15.1008 -0.0 -0.0 0.0 0.0 0.0 
1263.53110426 721.457 -1654.06781975 -1.89662630751 21.6151296997 -1.86406747097 -0.639041 -0.0293018 0.234355 -0.639011 -0.044155 0.232016 -0.639179 -0.0943547 0.216513 -0.639239 -0.0589763 0.228698 3.10813 6.5726 -4.37081 3.46157 15.1681 -4.46889 -0.0 0.0 -0.0 1.9812 22.2642 5.36656 -3.06644 -25.3724 67.459 1.67218 -39.6334 0.60261 -21.9638 -1.26746 2.48885 0.0942448 0.858817 0.989455 -0.0 0.0 -0.0 10.2223 9.44458 -20.3258 -20.7072 22.733 -55.4208 0.60723 16.7416 -0.0893526 -17.3778 0.925072 -2.01182 3.48065 -30.5638 -32.1661 0.0 0.0 0.0 4.39462 -0.522487 5.35291 -50.5364 -1.26921 7.40441 38.7594 -7.66086 -4.86841 -18.3803 0.0 0.0 -0.0 0.0 -0.0 31.1724 17.6563 -2.1895 -20.7308 -0.286235 -3.15111 -1.35948 -4.44752 -0.200066 14.3168 -0.0 -0.0 0.0 0.0 0.0 
1258.92113439 723.547 -1669.71739989 -1.54570191737 19.5548792011 -1.95926077567 -0.770163 -0.0784216 0.337231 -0.770105 -0.0997214 0.331557 -0.770666 -0.171244 0.300916 -0.770772 -0.121572 0.324184 2.69963 5.87401 -4.90726 3.03713 14.4193 -5.05981 -0.0 0.0 -0.0 2.13511 23.0258 5.62001 -3.8719 -25.2391 67.8334 1.51681 -36.9181 0.506337 -21.6757 -1.24483 2.45969 -0.146147 2.54562 0.100499 -0.0 0.0 -0.0 10.3698 11.6555 -20.6198 -19.1416 23.3394 -55.3348 0.589361 16.2754 -0.0842752 -17.5303 0.935832 -2.02811 3.57857 -30.4905 -32.8007 0.0 0.0 0.0 8.33785 0.454055 3.78542 -56.4722 -1.83134 8.12545 39.2971 -7.25055 -4.90824 -17.5892 0.0 0.0 -0.0 0.0 -0.0 29.5699 17.5214 -1.58679 -20.2171 -0.292995 -3.07257 -0.419188 -4.72578 -0.0615341 14.1286 -0.0 -0.0 0.0 0.0 0.0 
1244.27381066 728.066 -1703.82354738 -0.783961888462 19.1392095827 -2.88051976673 -0.656999 0.0480461 0.961185 -0.656485 -0.0132111 0.962295 -0.656401 -0.22592 0.935495 -0.657615 -0.0753481 0.959432 1.17792 3.46099 -4.25275 1.33736 9.65119 -4.33525 -0.0 0.0 -0.0 1.85546 21.155 5.12564 -4.40542 -25.4258 69.0116 0.983711 -25.9795 0.226928 -19.1826 -1.05523 2.20278 -0.362071 8.83601 1.33309 -0.0 0.0 -0.0 11.2085 19.4989 -22.1622 -12.5641 22.1907 -55.045 0.71856 19.5934 -0.124076 -15.7417 0.812343 -1.83528 3.75132 -30.6805 -33.966 0.0 0.0 0.0 14.132 3.82607 -0.152199 -64.3452 -2.687 8.98612 38.5722 -7.22287 -4.84349 -16.9689 0.0 0.0 -0.0 0.0 -0.0 26.6289 17.1914 -0.717536 -22.8779 -0.250369 -3.4786 11.0871 -2.22546 1.5774 16.1594 -0.0 -0.0 0.0 0.0 0.0 
1253.83426194 728.066 -1708.91076942 -0.77352492144 16.7699619107 -2.91436986841 -0.656999 0.0480461 0.961185 -0.656485 -0.0132111 0.962295 -0.656401 -0.22592 0.935495 -0.657615 -0.0753481 0.959432 1.17792 3.46099 -4.25275 1.33736 9.65119 -4.33525 -0.0 0.0 -0.0 1.85546 21.155 5.12564 -4.40542 -25.4258 69.0116 0.983711 -25.9795 0.226928 -19.1826 -1.05523 2.20278 -0.362071 8.83601 1.33309 -0.0 0.0 -0.0 11.2085 19.4989 -22.1622 -12.5641 22.1907 -55.045 0.71856 19.5934 -0.124076 -15.7417 0.812343 -1.83528 3.75132 -30.6805 -33.966 0.0 0.0 0.0 14.132 3.82607 -0.152199 -64.3452 -2.687 8.98612 38.5722 -7.22287 -4.84349 -16.9689 0.0 0.0 -0.0 0.0 -0.0 26.6289 17.1914 -0.717536 -22.8779 -0.250369 -3.4786 11.0871 -2.22546 1.5774 16.1594 -0.0 -0.0 0.0 0.0 0.0 
1246.49312031 736.447 -1738.47513724 -0.125358455135 17.4528750224 -2.84461172164 -0.960908 0.276296 1.33522 -0.959936 0.190781 1.35009 -0.954604 -0.119887 1.35822 -0.957166 0.0961032 1.36011 -1.91548 1.51889 -3.45119 -1.8563 5.48091 -3.43796 -0.0 0.0 -0.0 1.62266 18.2363 4.59487 -5.66466 -26.1352 69.1607 0.672125 -18.4153 0.108954 -16.8096 -0.885349 1.95087 -0.0989321 13.9217 5.0941 -0.0 0.0 -0.0 11.721 24.2689 -22.9289 -7.31496 22.7843 -53.7443 1.01861 26.7745 -0.242435 -13.7693 0.683247 -1.61835 3.96863 -30.8371 -35.4481 0.0 0.0 0.0 22.8133 0.57497 -4.01386 -68.9991 -3.24594 9.43744 35.0385 -3.29553 -4.45498 -16.5648 0.0 0.0 -0.0 0.0 -0.0 24.1459 14.8268 -0.857193 -23.1391 -0.245169 -3.51834 16.2152 2.77248 2.28707 18.4119 -0.0 -0.0 0.0 0.0 0.0 
1255.69317807 736.447 -1742.6688499 -0.124080883368 15.4665683399 -2.84911999536 -0.960908 0.276296 1.33522 -0.959936 0.190781 1.35009 -0.954604 -0.119887 1.35822 -0.957166 0.0961032 1.36011 -1.91548 1.51889 -3.45119 -1.8563 5.48091 -3.43796 -0.0 0.0 -0.0 1.62266 18.2363 4.59487 -5.66466 -26.1352 69.1607 0.672125 -18.4153 0.108954 -16.8096 -0.885349 1.95087 -0.0989321 13.9217 5.0941 -0.0 0.0 -0.0 11.721 24.2689 -22.9289 -7.31496 22.7843 -53.7443 1.01861 26.7745 -0.242435 -13.7693 0.683247 -1.61835 3.96863 -30.8371 -35.4481 0.0 0.0 0.0 22.8133 0.57497 -4.01386 -68.9991 -3.24594 9.43744 35.0385 -3.29553 -4.45498 -16.5648 0.0 0.0 -0.0 0.0 -0.0 24.1459 14.8268 -0.857193 -23.1391 -0.245169 -3.51834 16.2152 2.77248 2.28707 18.4119 -0.0 -0.0 0.0 0.0 0.0 
